<svg xmlns="http://www.w3.org/2000/svg" width="965.16" height="562.387" viewBox="0 0 965.16 562.387">
  <g>
    <path d="M27.69,562.21S-79.974,299.9,132.22,299.9c112.116,0,102.558-93.156,173.353-180.98,128.545-159.463,406.74-135.4,494.632,11.2,79.246,132.175-83.8,243.131,52.012,262.006C1016.662,414.978,953.061,562.21,953.061,562.21Z" style="fill: #f4f4f4"/>
    <g>
      <path d="M35.875,466s20.079,14.931,23.994,14.025S45.2,463.909,45.2,463.909c6.995-3.363,28.74-1.254,28.74-1.254s7.243,23.357,10.815,21.516-7.469-20.355-7.469-20.355c7.791-.47,17.347,5.315,17.347,5.315,13.081,10.331-.86,26.6-.86,26.6a39.755,39.755,0,0,0,10.946,15.362s11.8,8.726,12.618,24.317l-2.141.191s-3.395-14.52-9.564-21.388c-.24-.249-.588-.606-1.019-1.04-1.005-.93-1.709-1.63-2.182-2.149-3.07-2.95-7.314-6.708-9.358-7.072a3.933,3.933,0,0,0,.088-1.028c-.028.329-.057.668-.088,1.028-.7,8.22-16.648,15.4-26.459,16.876s-6.778-2.557-3.4-8.537,14.079-8.655,16.52-11.409-2.606-2.76-8.517-.06-6.721,9.9-16.2,14.44-23.751-11.2-23.751-11.2c7.557-.383,18.349-8.591,17.959-11.1s-18.32,4.332-21.385,4.661-10.039-3.484-11.117-15.83S35.875,466,35.875,466Z" style="fill: #afafaf"/>
      <g>
        <path d="M142.513,475.273S120.335,462.853,130.685,446c0,0,8.279-10.35,17.15-13.011,0,0-4.731,25.134,0,25.725s3.253-28.387,3.253-28.387,23.36-11.236,32.527-10.349c0,0-14.49,24.543-9.759,23.952s21-25.43,21-25.43,23.952-4.436,27.795,9.758-2.365,21.29-5.914,22.177-26.316.591-25.725,3.548,15.967,7.689,24.543,5.027c0,0-9.463,23.36-21.882,22.178s-16.263-8.872-23.952-9.463-13.306,1.479-9.462,3.549,16.855.678,23.064,5.957,11.237,8.532-.3,10.9-32.231.887-36.371-7.984Z" style="fill: #ccc"/>
        <path d="M136.6,496.858c6.209-11.532,5.914-21.585,5.914-21.585,7.1-22.474,69.193-42.581,69.193-42.581-78.951,31.935-65.054,51.451-65.054,51.451-2.127,1.242-5.318,7.159-7.532,11.7-.315.773-.814,1.842-1.556,3.294h0c-.3.656-.541,1.193-.707,1.568-4.065,10.171-1.911,27.736-1.911,27.736l-2.464.661C127.022,511.4,136.6,496.858,136.6,496.858Z" style="fill: #afafaf"/>
      </g>
      <g>
        <path d="M107.23,458.145s29.234-16.371,15.592-38.589c0,0-10.914-13.642-22.608-17.15,0,0,6.237,33.131,0,33.911S95.927,398.9,95.927,398.9,65.134,384.086,53.05,385.255c0,0,19.1,32.352,12.863,31.572s-27.674-33.521-27.674-33.521S6.666,377.459,1.6,396.169s3.118,28.064,7.8,29.234,34.691.779,33.912,4.677-21.048,10.135-32.352,6.627c0,0,12.473,30.793,28.843,29.234s21.439-11.694,31.573-12.474,17.54,1.949,12.473,4.678-22.218.894-30.4,7.853-14.812,11.246.39,14.364,42.486,1.17,47.943-10.524Z" style="fill: #ccc"/>
        <path d="M16.021,402.016s81.854,26.5,91.209,56.129c0,0-.39,13.252,7.8,28.454,0,0,12.623,19.169,5.427,42.5l-3.248-.872s2.839-23.153-2.52-36.56c-.219-.494-.535-1.2-.932-2.067h0c-.978-1.914-1.636-3.324-2.052-4.342-2.918-5.986-7.123-13.787-9.928-15.423C101.773,469.838,120.093,444.113,16.021,402.016Z" style="fill: #afafaf"/>
      </g>
    </g>
    <g>
      <path d="M731.528,458.47s-36.745-20.577-19.6-48.5c0,0,13.718-17.148,28.416-21.557,0,0-7.839,41.644,0,42.624S745.736,384,745.736,384s38.705-18.618,53.893-17.148c0,0-24.007,40.665-16.168,39.685S818.246,364.4,818.246,364.4s39.685-7.349,46.055,16.168-3.92,35.275-9.8,36.745-43.6.979-42.624,5.879,26.456,12.738,40.664,8.329c0,0-15.678,38.7-36.255,36.745s-26.947-14.7-39.685-15.678-22.047,2.449-15.678,5.879,27.927,1.124,38.215,9.871,18.618,14.136-.49,18.055-53.4,1.47-60.262-13.228Z" style="fill: #ccc"/>
      <path d="M846.173,387.92s-102.886,33.315-114.645,70.55c0,0,.49,16.658-9.8,35.765,0,0-15.867,24.1-6.821,53.425l4.082-1.1s-3.568-29.1,3.168-45.954c.275-.621.673-1.511,1.171-2.6h0c1.229-2.406,2.057-4.178,2.579-5.458,3.668-7.523,8.954-17.329,12.479-19.385C738.387,473.168,715.361,440.833,846.173,387.92Z" style="fill: #afafaf"/>
    </g>
    <path d="M873.872,529.1c-11.436-8.356-34.8-2.714-52.049,3.32a78.738,78.738,0,0,0-9.479-11c37.152-23.933,88.464-74.971,61.268-79.292-23.642-3.756-55.548,42.185-72.6,70.152-17.707-11.912-44.839-20.668-86.265-17.632-107.509,7.882-191.495-61.466-253.405-38.337C412.119,474.7,367.01,485,323.5,481.484c1.873-31.781,2.279-94.182-22.677-100.655-25.336-6.573-.484,64.293,13.328,99.679q-4.861-.622-9.7-1.485c-8.944-17.636-23.683-40.715-39.867-41.5-15.241-.743,3.57,20.006,22.081,37.584-53.2-11.17-116.314,32.078-117.361,83.213h664.21a61.557,61.557,0,0,0-6.388-17.305C852.8,540.508,886.293,538.177,873.872,529.1Z" style="fill: #ccc"/>
    <g>
      <rect x="139.133" y="491.886" width="175.061" height="66.437" style="fill: #e28686"/>
      <rect x="85.155" y="491.884" width="175.06" height="66.442" style="fill: #f0b6b5"/>
    </g>
    <g>
      <g>
        <rect x="383.062" y="376.117" width="130.353" height="182.2" transform="translate(896.476 934.433) rotate(180)" style="fill: #fcc24c"/>
        <rect x="342.869" y="376.117" width="130.352" height="182.2" transform="translate(816.091 934.433) rotate(180)" style="fill: #ffd694"/>
      </g>
      <polygon points="473.222 376.117 513.414 403.474 513.414 376.117 473.222 376.117" style="fill: #e59e2c"/>
    </g>
    <g>
      <path d="M577.919,99.163c-1.936.638-4.815,8.39-4.815,8.39-10.889,7.2-26.243,18.838-31.736,23.094-3.9,3.018-16.523-3.7-29.232-8.789-15.115-6.06-29.8-13.05-29.8-13.05-8.387-.427-17.912,14.874-.9,24.6,2.6,1.485,12.352,4.02,23.586,6.334h0c15.5,3.193,33.8,5.965,40.037,4.991,7.239-1.132,25.71-22.647,33.987-33.277h0l.021-.027.092-.119c.5-.635,2.559-3.169,4.388-3.965,2.1-.911,4.746-6.937,4.38-8S579.855,98.524,577.919,99.163Z" style="fill: #ffb27d"/>
      <path d="M573.7,311.656l-7.139,1.451s-32.671-36.709-37.712-52.156c-2.7-8.255-19.946-11.822-37.972-16.482-15.689-4.056-31.967-8.944-39.74-18.479-16.709-20.488,10.494-45.664,10.494-45.664s28.923,17.19,53.875,34.95c17.441,12.411,32.942,25.1,35.278,32.391C556.452,265.4,568.481,299.107,573.7,311.656Z" style="fill: #2b478b"/>
      <path d="M564.141,323.766h4.016c1.345-.212,2.338-.6,3.718-.782a3.725,3.725,0,0,1,3.251.782c.026.026.038.04.038.04h17.058c.43-.612.018-2.032-.386-3.077a2.425,2.425,0,0,0-1.6-1.46c-1.809-.524-5.375-.99-8.641-3.947-1.837-1.66-8.873-6.105-8.873-6.105l-.037-.009c-.155,0-.891.229-4.091,2.931-1.654,1.394-4.473-1.969-4.473-1.969a4.012,4.012,0,0,0-.925,1.254,4.237,4.237,0,0,0-.366,2.619c.254,1.537-.567,4.393-1.223,6.325-.4,1.171-.732,2-.732,2S560.686,323.334,564.141,323.766Z" style="fill: #233862"/>
      <path d="M515.5,215.276l-24.629,29.193c-15.689-4.056-31.967-8.944-39.74-18.479-16.709-20.488,10.494-45.664,10.494-45.664S490.55,197.516,515.5,215.276Z" style="fill: #1e3d70"/>
      <path d="M493.122,200.027s-1.986,6.261-5.218,15.681c-4.088,11.911-10.176,28.87-16.779,44.6-1.451,3.456-2.928,6.854-4.414,10.125-5.492,12.1-11.114,22.478-16.063,27.75-8.893,9.478-30.514,70.412-30.514,70.412l-5.387-1.491s-7.511-52.032,19.1-81.64a1.879,1.879,0,0,0,.539-1.1l0-.011c.353-4.383,1.62-24.009,4.375-43.9.677-4.879,1.443-9.771,2.3-14.458.054-.3.112-.6.166-.892,4.048-21.674,7.923-31.314,12.926-36.163l36.786,10.471Z" style="fill: #2b478b"/>
      <path d="M414.146,376.077h4.016c1.345-.212,2.338-.6,3.718-.782a3.719,3.719,0,0,1,3.251.782.515.515,0,0,1,.037.04h17.06c.429-.613.017-2.032-.387-3.077a2.427,2.427,0,0,0-1.6-1.46c-1.809-.524-5.375-.99-8.641-3.947-1.838-1.66-8.873-6.106-8.873-6.106l-.038-.008c-.154,0-.889.229-4.09,2.931-1.654,1.394-4.473-1.97-4.473-1.97a4.009,4.009,0,0,0-.925,1.255,4.241,4.241,0,0,0-.366,2.618c.255,1.537-.567,4.394-1.222,6.326-.4,1.171-.733,2-.733,2S410.691,375.644,414.146,376.077Z" style="fill: #233862"/>
      <path d="M422.036,129.264s-6.155,15.057-13.251,29.714c-5.97,12.322-12.6,24.359-16.808,26.929-5.929,3.622-22.265,13.84-32.861,21.462,0,0-8.27-.063-9.554,1.52s-4.25,8.7-3.384,9.416,7.44.386,9.037-1.251c1.393-1.428,4.5-2.454,5.265-2.694.048-.014.095-.028.144-.044l.033-.009h0c12.876-3.961,33.074-12.215,39.189-16.251,5.264-3.475,16.934-17.85,26.243-30.645h0c6.748-9.274,12.255-17.717,13.175-20.563C445.293,128.2,427.949,123.3,422.036,129.264Z" style="fill: #ffb27d"/>
      <path d="M454.226,70.217a31.2,31.2,0,0,0-2.2-2.849,6.9,6.9,0,0,0,2.716-.408c2.161-.893,3.146-7.752,2.821-9.786s-3.324-7.918-7.025-8.5-7.526,3.523-7.526,3.523c.684-2.966,6.946-4.677,6.946-4.677-12.9,2.378-12.24,10.98-12.151,11.774C426,55.084,419.065,77.317,419.065,77.317l30.581,18.022s.08-4.911,3-4.595C457.2,91.238,460.982,80.065,454.226,70.217Z" style="fill: #2c3a64"/>
      <path d="M456.174,116.867c-7.017,3.308-16.328-1.456-16.278-1.506.6-.6.39-2.4-.162-4.759a34.66,34.66,0,0,0-4.26-9.824c-.5-.852-1-1.7-1.6-2.606l.8-.3,13.633-5.464s2.2,3.959,4.511,7.568c1.954,3.008,4.009,5.714,4.912,5.614C457.778,105.54,466.8,111.755,456.174,116.867Z" style="fill: #ffb27d"/>
      <path d="M448.305,93.761c-.351,4.861-2,13.633-8.571,16.841a34.66,34.66,0,0,0-4.26-9.824Z" style="fill: #ed975d"/>
      <path d="M434.676,106.311s17.749-7,13.222-17.981-5.285-19.288-16.808-15.286-11.984,9.1-11.365,13.13S429.942,107.848,434.676,106.311Z" style="fill: #ffb27d"/>
      <path d="M441.3,85.824c8.195-1.156,10.587-4.469,10.587-4.469A22.693,22.693,0,0,1,439.9,71.8s-9.211-3.106-16.037,2.087A4.591,4.591,0,0,0,423,75.809c-1.565-.512-3.918-.379-5.275,4.043-2.04,6.642,5.216,13.895,5.216,13.895,1.759-.5-.225-6.417-.5-9.576-.2-2.325,1.051-5.3,1.727-6.713.869,1.127,9.515,11.992,20.07,12.426a44.493,44.493,0,0,1-10.651-5.72A13.613,13.613,0,0,0,441.3,85.824Z" style="fill: #2c3a64"/>
      <path d="M489.485,137.858a41.627,41.627,0,0,0,4.479-13.422c1.2-8.121-.851-13.133-.851-13.133s-12.312-6.528-17.747-7.359a.348.348,0,0,0-.068-.021c-.064-.009-.138-.015-.218-.02-5.487-.757-17.368,1.668-17.368,1.668s2.292,6.1-4.174,10.168-13.369-1.042-13.369-1.042c-.209.141-.43.3-.658.456h0s-17.011,11.225-18.539,13.789-8.069,15.266-8.069,15.266,2.074,10.661,25.055,11.553c1.888,4.582,2.811,9.156,3.805,12.779,3.943,14.361,5.847,22.444,3.943,33.579-1.468,8.587,40.474-.466,47.417-2.091,0,0-1.688-26.258-2.062-33.471C489.857,143.319,489.654,138.422,489.485,137.858Z" style="fill: #e28686"/>
      <path d="M493.964,124.436a41.648,41.648,0,0,1-4.51,13.481c-.6-2.656-3.057-12.379-7.017-16.791C482.437,121.126,489.1,121.729,493.964,124.436Z" style="fill: #c47070"/>
    </g>
    <path d="M337.844,219.286s7.144-8.656,8.681-9.679,8.286-2.818,8.672-2.457.4.885-.433,1.623-4.027,2.6-3.572,2.81,10.082-4.582,11.47-2.97-.786,8.265-4.5,11.455-14.783,4.551-15.48,5C336.782,228.84,337.844,219.286,337.844,219.286Z" style="fill: #ffb27d"/>
    <path d="M212.077,199.3s10.262,12.176,23.331,7.083c0,0,.243-3.537.685-8.531.4-4.478,2.448-13.876,2.448-13.876l-.013,0c-.595-.248-19.978-8.206-19.962-7.545C218.9,191.691,212.077,199.3,212.077,199.3Z" style="fill: #ffb27d"/>
    <path d="M220.512,178.043c1.8,3.334,7.816,9.726,16.721,12.41.485-2.588.979-4.941,1.195-5.953.007-.2.014-.386.021-.563-.827-.341-7.732-3.172-13.181-5.269C222.429,178.044,220.316,177.683,220.512,178.043Z" style="fill: #ed975d"/>
    <path d="M242.6,183.386s-21.8,5.125-24.782-8.5-7.8-22.139,5.988-25.987,16.006.237,18.814,4.119C249.487,162.51,248.194,181.7,242.6,183.386Z" style="fill: #ffb27d"/>
    <path d="M218.565,178.6c-.3.19-11.384.622-15.16-13.1-.824-3-1.055-11.754,2.195-17.063s8.728-8.882,18.3-10.7c10.711-2.032,16.787,2.449,20.177,10.589,2.367,5.685-7.847,2.416-12.445,9.465-1.973,3.026-5.577,9.237-9.909,7.683s-1.959,6.14-1.266,7.611C220.461,173.087,221.05,177.007,218.565,178.6Z" style="fill: #a9453d"/>
    <g>
      <path d="M162.411,491.139h-13.2c-2.766,0-5.841-2.552-6.611-7.223s-6.457-7.221-7.689-11.045,5.076-9.207,5.076-9.207l1.054-1.247,1.1-1.3,10.456,2.264s.258,2.293.419,5.213a61.52,61.52,0,0,1,.043,6.683c-.308,5.1,1.55,10.588,6.469,11.581S162.411,491.139,162.411,491.139Z" style="fill: #2c3a64"/>
      <path d="M254.3,491.254H219.311a3.264,3.264,0,0,1-.743-.2c-2.336-1.094-1.6-9.461-1.323-12.046.054-.479.092-.76.092-.76s12.3-9.206,14-2.156c.054.219.115.435.181.648v0c2.136,6.6,11.683,9.591,17.2,10.427C252.926,487.809,254.019,490.106,254.3,491.254Z" style="fill: #2c3a64"/>
      <path d="M236.516,305.076s6.075,31.523,1.094,58c-1.936,10.292-4.4,18.024-5.043,28.724-1.5,24.805-.448,41.753-.625,47.376-.439,13.977-2.2,36.335-2.2,36.335s-4.174,5.311-12.529,3.072c0,0-9.176-20.609-11.3-54.377-.033-.553,1.433-12.447,1.632-12.975,1.782-4.733,4.8-11.689,3.027-19.43-8.081-35.261-8.081-87.334-8.081-87.334Z" style="fill: #fcc24c"/>
      <path d="M210.57,391.8c.089.387.158.771.223,1.155L236.657,367.8c.325-1.527.646-3.091.953-4.725,4.981-26.475-1.094-58-1.094-58l-34.026-.611s.69,18.341,1.676,40.445C205.321,360.219,207.273,377.408,210.57,391.8Z" style="fill: #e59e2c"/>
      <path d="M230.547,307.813s-25.511,78.82-47.656,114.874S153.826,468.8,153.826,468.8s-12.687-4.612-13.841-7.756c0,0,21.749-62.232,37.367-78.605,8.484-8.894,4.642-43.1,4.616-56.386-.019-10.07,3-29.974,3-29.974Z" style="fill: #fcc24c"/>
    </g>
    <g>
      <path d="M161.6,305.3s-.872,10.544-1.511,12.163-4.9,6.638-5.39,6.566-.787-.467-.538-1.489,1.718-4.179,1.253-4.1-5.339,8.972-7.28,8.471-3.839-6.821-2.684-11.286,8.994-11.475,9.293-12.194C157.286,297.334,161.6,305.3,161.6,305.3Z" style="fill: #ed975d"/>
      <path d="M157.99,307.974c3.728,1.2,4.326.926,4.326.926S179.16,270.673,181,267.649s39.821-44.835,39.821-44.835l-9.427-22.168s-41.725,54.031-46.23,61.784C157.716,275.242,153.353,305,153.353,305A10.91,10.91,0,0,0,157.99,307.974Z" style="fill: #1e3d70"/>
    </g>
    <path d="M252.162,242.022c-.089,4.53-6.534,23.673-9.776,36.064-1.235,4.722-2.389,24.258-1.681,30.948.452,4.262-15.123,5.116-26.368,2.858-9.49-1.848-17.661-5.349-26.32-10.071-1.149-.627-3.769-2.288-3.556-3.528a23.24,23.24,0,0,1,1.088-5.813c5.49-14.416,8.353-22.186,9.358-39.534.195-3.232-.342-26.751,1.733-33.647,3.856-12.812,9.522-22.623,16.63-26.461.929-.48,5.927,2.454,10.517,5.172a21.625,21.625,0,0,0,13.042,2.851l3.819,3.9c4.626,4.963,9.552,11.569,10.9,20.959q.151,1.041.26,2.214A126.925,126.925,0,0,1,252.162,242.022Z" style="fill: #2a4e96"/>
    <path d="M252.162,242.022a127.17,127.17,0,0,0-.358-14.09q-.108-1.174-.26-2.214c-.1-.7-.226-1.378-.364-2.047-7.464-1.44-15.954-.4-27.283-.932,0,0,17.253,15.43,23.942,36.459C250.142,251.423,252.113,244.512,252.162,242.022Z" style="fill: #1e3d70"/>
    <path d="M342.093,220.152c-1.443-3.9-3.688-3.651-3.688-3.651s-41.637,10.376-45.374,10.822-44.837-16.049-44.837-16.049-16.177-7.26-23.755-.631c-6.585,5.761-5.378,4.735-3.837,10.863a18.322,18.322,0,0,0,15.486,13.65c16.768,2.136,48.716,14.48,55.728,13.5,15.607-2.173,50.967-22.586,50.967-22.586A13.088,13.088,0,0,0,342.093,220.152Z" style="fill: #2a4e96"/>
    <path d="M760.792,298.9s5.784,4.787,4.656,8.188-6.35,5.668-7.055,9.826-3.527,6.424-6.067,6.424H740.218s-1.869-2.925,2.646-3.807,6.217-5.766,5.935-10.3a72.586,72.586,0,0,1,.423-10.581l9.594-2.016Z" style="fill: #2c3a64"/>
    <path d="M688.7,320.861a24.837,24.837,0,0,1-5.479.565l-10.13,1.5a14.069,14.069,0,0,1-1.81.149l-15.441.266c.092-.727.729-3.319,5.207-3.964,5.058-.734,13.821-3.359,15.773-9.136.066-.184.122-.375.17-.566,1.551-6.171,12.837,1.889,12.837,1.889s.033.246.081.667C690.168,314.5,690.835,319.907,688.7,320.861Z" style="fill: #2c3a64"/>
    <path d="M674.56,150.361a200.156,200.156,0,0,0,1.3,46.946c2.223,14.317.021,29.241.868,39.1.5,5.762,1.732,11.271,2.172,16.506,1.247,14.835-1.3,57.34-1.3,57.34s3.05,3.757,13.776,1.739c0,0,3.28-14.153,7.509-39.531,2.607-15.638-4.386-32.371-4.344-32.874,2.54-30.989,15.738-71.552,15.738-71.552Z" style="fill: #35488b"/>
    <path d="M673.257,144.714s.359,59.044,5.614,71.232L688.9,239.194c.043-.5,5.605,2.054,5.647,1.551,2.54-30.989,15.738-72.715,15.738-72.715l-23.991-49.9Z" style="fill: #2c3a64"/>
    <path d="M678.47,146.918s.652,41.7,26.383,85.088c6.357,10.718,8.8,11.78,19.662,28.287,20.951,31.846,26.063,41.7,26.063,41.7s9.155-2.98,10.214-5.815c0,0-10.214-37.189-21.942-54.13-1.59-2.3-14.856-14.251-15.2-18.679-1.737-22.154-1.551-32.627-.412-40.591,5.625-39.337-10.882-45.015-10.882-45.015Z" style="fill: #35488b"/>
    <path d="M595.985,100.4s-8.271-4.2-9.773-4.463-7.206.6-7.378,1.006-.014.8.863,1.085,3.909.639,3.634.949-9.151-.14-9.669,1.54,3.327,6,7.19,7.19,12.7-1.438,13.374-1.331C599.947,107.288,595.985,100.4,595.985,100.4Z" style="fill: #ffb27d"/>
    <path d="M592.237,104a21.2,21.2,0,0,1,1.962-6.6c49.141-2.01,40.461-.285,36.42.058,3.861-.328,11.731-54.535,11.731-54.535l19.035,8.642s-13.678,53.968-22.2,58.845C625.1,118.468,592.9,110,592.9,110A11.946,11.946,0,0,1,592.237,104Z" style="fill: #efac4b"/>
    <path d="M663.484,47.443s-10.584,19.308-23.751,22.4a89.91,89.91,0,0,1,.405-10.947c-.988-4.742-.893-5.349-1.892-6.623-3.315-4.247-5.744-4.186-5.744-4.186l4.469-12.014,4.359-9.266c1.457,2.645,1.8,7.847,3.475,9.774C653.435,46.505,663.484,47.443,663.484,47.443Z" style="fill: #ffb27d"/>
    <path d="M641.332,33.072s6.681,11.707-2.275,20.014c-3.315-4.247-6.555-5-6.555-5l4.469-12.014C641.762,34.615,641.332,33.072,641.332,33.072Z" style="fill: #ed975d"/>
    <path d="M623.667,48.79a6.724,6.724,0,0,0,10-.173c4.757-5.49,11.974-15.895,8.2-25.146-5.43-13.317-3.458-18.777-17.423-13.985S609.906,20.44,610.637,25.325C611.171,28.893,617.581,42.21,623.667,48.79Z" style="fill: #ffb27d"/>
    <path d="M670.034,148.739q-.1-2.19-.376-4.653c-1.023-8.988-25.037-48.042-26.912-53.469-3.624-10.479-3.35-15.272-3.283-25.908l-.443.33c12.954-4.182,15.715-20.062,15.715-20.062s29.816-2.313,42.355,48.668c1.668,6.783,11.581,33.629,17.434,43.282C717.617,142.027,670.327,154.973,670.034,148.739Z" style="fill: #fcc24c"/>
    <path d="M670.337,142.762c-6.116-18.209-27.437-49.015-25.7-52.425C651.7,76.476,655.97,66.489,655.97,66.489S685.383,116.128,670.337,142.762Z" style="fill: #efac4b"/>
    <g>
      <path d="M589.837,135.567s-11.256-1.084-13.084-.748-7.938,3.636-7.959,4.139.338.869,1.461.81,4.729-.933,4.552-.486-10.478,3.643-10.331,5.663,6.42,5.075,11.341,4.754,13.825-6.811,14.64-6.976C597.368,141.329,589.837,135.567,589.837,135.567Z" style="fill: #ffc197"/>
      <path d="M587.074,139.258c-1.676-3.742.193-5.062.193-5.062s36.025-18.531,39.152-20.713,20.605-41.069,20.605-41.069,7.04-16.5,17.435-16.329c8.378.137,10.815,15.106,6.463,23.461-7.8,14.984-26.366,42.195-32.335,46.188-13.285,8.888-47.842,18.2-47.842,18.2A12.945,12.945,0,0,1,587.074,139.258Z" style="fill: #fccf86"/>
    </g>
    <path d="M629.386.074A21.539,21.539,0,0,0,616.411,3.02c-11.187,6.5-11.516,21.025-8.028,22.1s9.909-5.8,15.684-6.741,8.9,7.106,11.1,7.773.95-1.163,3.256-3,3.629,2.48,3.579,5.509,4.446,5.9,4.446,5.9l2.636-4.836C651.72,24.888,653.222,1.7,629.386.074Z" style="fill: #2b478b"/>
    <rect x="11.865" y="558.316" width="953.295" height="4.071" rx="1.499" style="fill: #2e3552"/>
    <polygon points="314.194 491.139 314.194 529.466 260.215 491.139 314.194 491.139" style="fill: #d67b7b"/>
    <rect x="597.634" y="323.84" width="178.517" height="234.475" style="fill: #80bcf9"/>
    <rect x="542.588" y="323.841" width="178.52" height="234.475" style="fill: #cce3ff"/>
    <polygon points="776.151 323.841 776.151 358.903 721.109 323.841 776.151 323.841" style="fill: #4b9adb"/>
    <path d="M212.077,149.809s-6.206-16.755-22.566-8.377.847,34.735,0,39.609-4.862,3.94-4.862,3.94,18.12,5.728,16.319-10.914C197.692,143.8,212.077,149.809,212.077,149.809Z" style="fill: #a9453d"/>
    <polygon points="765.13 304.275 767.411 308.51 762.524 314.048 756.986 312.745 765.13 304.275" style="fill: #2c3a64"/>
    <polygon points="681.076 320.401 681.565 323.171 689.221 323.171 689.71 317.958 681.076 320.401" style="fill: #2c3a64"/>
    <path d="M621.223,13.983s10.046,7.069,10.791,13.4a29.985,29.985,0,0,1-.372,10.418,18.965,18.965,0,0,0,7.511.56c4.767-.434,8.523-1.156,8.523-1.156l.144-3.322,1.734,2.167a13.179,13.179,0,0,1,3.177-2.167c2.745-1.589,1.445-22.535-11.267-30.046s-24.123.433-24.123.433Z" style="fill: #2b478b"/>
  </g>
</svg>
